<svg width="3658" height="1224" xmlns="http://www.w3.org/2000/svg" xmlns:xlink="http://www.w3.org/1999/xlink"
    overflow="hidden">
    <defs>
        <style type="text/css">
            @media (prefers-color-scheme: dark) {
                :root {
                    --light-color: #c9d1d9;
                    --dark-color: #3D4041;
                }

                svg[style^="background-color:"] {
                    background-color: var(--dark-color) !important;
                }

                [stroke="#3D4041"] {
                    stroke: var(--light-color);
                }

                [fill="#3D4041"] {
                    fill: var(--light-color);
                }
            }
        </style>
        <clipPath id="clip0">
            <rect x="-9" y="727" width="3658" height="1224" />
        </clipPath>
    </defs>
    <g clip-path="url(#clip0)" transform="translate(9 -727)">
        <path
            d="M517.5 1164C517.5 1125.62 548.616 1094.5 587 1094.5 625.384 1094.5 656.5 1125.62 656.5 1164 656.5 1202.38 625.384 1233.5 587 1233.5 548.616 1233.5 517.5 1202.38 517.5 1164Z"
            stroke="#3D4041" stroke-width="9.16667" stroke-miterlimit="8" fill="none" fill-rule="evenodd" />
        <path
            d="M570 1143.5C570 1148.19 566.418 1152 562 1152 557.582 1152 554 1148.19 554 1143.5 554 1138.81 557.582 1135 562 1135 566.418 1135 570 1138.81 570 1143.5Z"
            fill="#3D4041" fill-rule="evenodd" />
        <path
            d="M618 1143.5C618 1148.19 614.194 1152 609.5 1152 604.805 1152 601 1148.19 601 1143.5 601 1138.81 604.805 1135 609.5 1135 614.194 1135 618 1138.81 618 1143.5Z"
            fill="#3D4041" fill-rule="evenodd" />
        <path
            d="M604.334 1189.48C597.252 1199.83 583.008 1202.22 572.518 1194.81 570.777 1193.58 569.205 1192.12 567.848 1190.47"
            stroke="#3D4041" stroke-width="9.16667" stroke-linecap="round" stroke-miterlimit="8" fill="none"
            fill-rule="evenodd" />
        <path d="M749.5 1193.5 783.302 1193.5" stroke="#3D4041" stroke-width="9.16667" stroke-linecap="round"
            stroke-miterlimit="8" fill="none" fill-rule="evenodd" />
        <path
            d="M696.5 1164C696.5 1125.62 727.616 1094.5 766 1094.5 804.384 1094.5 835.5 1125.62 835.5 1164 835.5 1202.38 804.384 1233.5 766 1233.5 727.616 1233.5 696.5 1202.38 696.5 1164Z"
            stroke="#3D4041" stroke-width="9.16667" stroke-miterlimit="8" fill="none" fill-rule="evenodd" />
        <path
            d="M750 1143.5C750 1148.19 746.194 1152 741.5 1152 736.805 1152 733 1148.19 733 1143.5 733 1138.81 736.805 1135 741.5 1135 746.194 1135 750 1138.81 750 1143.5Z"
            fill="#3D4041" fill-rule="evenodd" />
        <path
            d="M797 1143.5C797 1148.19 793.418 1152 789 1152 784.582 1152 781 1148.19 781 1143.5 781 1138.81 784.582 1135 789 1135 793.418 1135 797 1138.81 797 1143.5Z"
            fill="#3D4041" fill-rule="evenodd" />
        <path
            d="M872.5 1164C872.5 1125.62 903.616 1094.5 942 1094.5 980.384 1094.5 1011.5 1125.62 1011.5 1164 1011.5 1202.38 980.384 1233.5 942 1233.5 903.616 1233.5 872.5 1202.38 872.5 1164Z"
            stroke="#3D4041" stroke-width="9.16667" stroke-miterlimit="8" fill="none" fill-rule="evenodd" />
        <path
            d="M925 1143.5C925 1148.19 921.418 1152 917 1152 912.582 1152 909 1148.19 909 1143.5 909 1138.81 912.582 1135 917 1135 921.418 1135 925 1138.81 925 1143.5Z"
            fill="#3D4041" fill-rule="evenodd" />
        <path
            d="M973 1143.5C973 1148.19 969.418 1152 965 1152 960.582 1152 957 1148.19 957 1143.5 957 1138.81 960.582 1135 965 1135 969.418 1135 973 1138.81 973 1143.5Z"
            fill="#3D4041" fill-rule="evenodd" />
        <path
            d="M16.5127 0.872627C28.5561-2.61585 41.0692 4.59602 44.4615 16.9808 45.0245 19.0363 45.31 21.1617 45.31 23.2972"
            stroke="#3D4041" stroke-width="9.16667" stroke-linecap="round" stroke-miterlimit="8" fill="none"
            fill-rule="evenodd" transform="matrix(-0.805537 -0.592546 -0.592546 0.805537 972.645 1206.36)" />
        <path
            d="M695.5 1344C695.5 1305.62 726.616 1274.5 765 1274.5 803.384 1274.5 834.5 1305.62 834.5 1344 834.5 1382.38 803.384 1413.5 765 1413.5 726.616 1413.5 695.5 1382.38 695.5 1344Z"
            stroke="#3D4041" stroke-width="9.16667" stroke-miterlimit="8" fill="none" fill-rule="evenodd" />
        <path
            d="M749 1323.5C749 1328.19 745.194 1332 740.5 1332 735.805 1332 732 1328.19 732 1323.5 732 1318.81 735.805 1315 740.5 1315 745.194 1315 749 1318.81 749 1323.5Z"
            fill="#3D4041" fill-rule="evenodd" />
        <path
            d="M796 1323.5C796 1328.19 792.418 1332 788 1332 783.582 1332 780 1328.19 780 1323.5 780 1318.81 783.582 1315 788 1315 792.418 1315 796 1318.81 796 1323.5Z"
            fill="#3D4041" fill-rule="evenodd" />
        <path
            d="M782.61 1369.17C775.529 1379.52 761.284 1381.91 750.794 1374.5 749.053 1373.27 747.482 1371.81 746.125 1370.16"
            stroke="#3D4041" stroke-width="9.16667" stroke-linecap="round" stroke-miterlimit="8" fill="none"
            fill-rule="evenodd" />
        <path d="M925.5 1373.5 959.302 1373.5" stroke="#3D4041" stroke-width="9.16667" stroke-linecap="round"
            stroke-miterlimit="8" fill="none" fill-rule="evenodd" />
        <path
            d="M872.5 1344C872.5 1305.62 903.616 1274.5 942 1274.5 980.384 1274.5 1011.5 1305.62 1011.5 1344 1011.5 1382.38 980.384 1413.5 942 1413.5 903.616 1413.5 872.5 1382.38 872.5 1344Z"
            stroke="#3D4041" stroke-width="9.16667" stroke-miterlimit="8" fill="none" fill-rule="evenodd" />
        <path
            d="M925 1324C925 1328.42 921.418 1332 917 1332 912.582 1332 909 1328.42 909 1324 909 1319.58 912.582 1316 917 1316 921.418 1316 925 1319.58 925 1324Z"
            fill="#3D4041" fill-rule="evenodd" />
        <path
            d="M973 1324C973 1328.42 969.418 1332 965 1332 960.582 1332 957 1328.42 957 1324 957 1319.58 960.582 1316 965 1316 969.418 1316 973 1319.58 973 1324Z"
            fill="#3D4041" fill-rule="evenodd" />
        <path
            d="M516.5 1344C516.5 1305.62 547.616 1274.5 586 1274.5 624.384 1274.5 655.5 1305.62 655.5 1344 655.5 1382.38 624.384 1413.5 586 1413.5 547.616 1413.5 516.5 1382.38 516.5 1344Z"
            stroke="#3D4041" stroke-width="9.16667" stroke-miterlimit="8" fill="none" fill-rule="evenodd" />
        <path
            d="M569 1324C569 1328.42 565.418 1332 561 1332 556.582 1332 553 1328.42 553 1324 553 1319.58 556.582 1316 561 1316 565.418 1316 569 1319.58 569 1324Z"
            fill="#3D4041" fill-rule="evenodd" />
        <path
            d="M617 1324C617 1328.42 613.194 1332 608.5 1332 603.805 1332 600 1328.42 600 1324 600 1319.58 603.805 1316 608.5 1316 613.194 1316 617 1319.58 617 1324Z"
            fill="#3D4041" fill-rule="evenodd" />
        <path
            d="M16.5127 0.872627C28.5561-2.61585 41.0692 4.59602 44.4615 16.9808 45.0245 19.0363 45.31 21.1617 45.31 23.2972"
            stroke="#3D4041" stroke-width="9.16667" stroke-linecap="round" stroke-miterlimit="8" fill="none"
            fill-rule="evenodd" transform="matrix(-0.805537 -0.592546 -0.592546 0.805537 616.504 1386.67)" />
        <path
            d="M873.5 1524C873.5 1485.62 904.616 1454.5 943 1454.5 981.384 1454.5 1012.5 1485.62 1012.5 1524 1012.5 1562.38 981.384 1593.5 943 1593.5 904.616 1593.5 873.5 1562.38 873.5 1524Z"
            stroke="#3D4041" stroke-width="9.16667" stroke-miterlimit="8" fill="none" fill-rule="evenodd" />
        <path
            d="M926 1503.5C926 1508.19 922.418 1512 918 1512 913.582 1512 910 1508.19 910 1503.5 910 1498.81 913.582 1495 918 1495 922.418 1495 926 1498.81 926 1503.5Z"
            fill="#3D4041" fill-rule="evenodd" />
        <path
            d="M974 1503.5C974 1508.19 970.194 1512 965.5 1512 960.806 1512 957 1508.19 957 1503.5 957 1498.81 960.806 1495 965.5 1495 970.194 1495 974 1498.81 974 1503.5Z"
            fill="#3D4041" fill-rule="evenodd" />
        <path
            d="M960.26 1549.63C953.179 1559.98 938.935 1562.36 928.445 1554.95 926.703 1553.72 925.132 1552.26 923.775 1550.62"
            stroke="#3D4041" stroke-width="9.16667" stroke-linecap="round" stroke-miterlimit="8" fill="none"
            fill-rule="evenodd" />
        <path
            d="M694.5 1522C694.5 1483.62 725.616 1452.5 764 1452.5 802.384 1452.5 833.5 1483.62 833.5 1522 833.5 1560.38 802.384 1591.5 764 1591.5 725.616 1591.5 694.5 1560.38 694.5 1522Z"
            stroke="#3D4041" stroke-width="9.16667" stroke-miterlimit="8" fill="none" fill-rule="evenodd" />
        <path
            d="M748 1501.5C748 1506.19 744.194 1510 739.5 1510 734.806 1510 731 1506.19 731 1501.5 731 1496.81 734.806 1493 739.5 1493 744.194 1493 748 1496.81 748 1501.5Z"
            fill="#3D4041" fill-rule="evenodd" />
        <path
            d="M795 1501.5C795 1506.19 791.418 1510 787 1510 782.582 1510 779 1506.19 779 1501.5 779 1496.81 782.582 1493 787 1493 791.418 1493 795 1496.81 795 1501.5Z"
            fill="#3D4041" fill-rule="evenodd" />
        <path
            d="M16.5127 0.872627C28.5561-2.61585 41.0692 4.59602 44.4615 16.9808 45.0245 19.0363 45.31 21.1617 45.31 23.2972"
            stroke="#3D4041" stroke-width="9.16667" stroke-linecap="round" stroke-miterlimit="8" fill="none"
            fill-rule="evenodd" transform="matrix(-0.805537 -0.592546 -0.592546 0.805537 794.78 1564.34)" />
        <path d="M568.5 1551.5 602.302 1551.5" stroke="#3D4041" stroke-width="9.16667" stroke-linecap="round"
            stroke-miterlimit="8" fill="none" fill-rule="evenodd" />
        <path
            d="M515.5 1522C515.5 1483.62 546.616 1452.5 585 1452.5 623.384 1452.5 654.5 1483.62 654.5 1522 654.5 1560.38 623.384 1591.5 585 1591.5 546.616 1591.5 515.5 1560.38 515.5 1522Z"
            stroke="#3D4041" stroke-width="9.16667" stroke-miterlimit="8" fill="none" fill-rule="evenodd" />
        <path
            d="M568 1501.5C568 1506.19 564.418 1510 560 1510 555.582 1510 552 1506.19 552 1501.5 552 1496.81 555.582 1493 560 1493 564.418 1493 568 1496.81 568 1501.5Z"
            fill="#3D4041" fill-rule="evenodd" />
        <path
            d="M616 1501.5C616 1506.19 612.418 1510 608 1510 603.582 1510 600 1506.19 600 1501.5 600 1496.81 603.582 1493 608 1493 612.418 1493 616 1496.81 616 1501.5Z"
            fill="#3D4041" fill-rule="evenodd" />
        <path d="M1209.5 1002.5 1209.5 1632.71" stroke="#3D4041" stroke-width="9.16667" stroke-miterlimit="8"
            fill="none" fill-rule="evenodd" /><text fill="#F1692D"
            font-family="Helvetica,Helvetica_MSFontService,sans-serif" font-weight="700" font-size="367"
            transform="matrix(1 0 0 1 1434.89 1455)">HandyRec</text>
    </g>
</svg>