<?xml version="1.0" standalone="no"?>
<!DOCTYPE svg PUBLIC "-//W3C//DTD SVG 20010904//EN"
 "http://www.w3.org/TR/2001/REC-SVG-20010904/DTD/svg10.dtd">
<svg version="1.0" xmlns="http://www.w3.org/2000/svg"
 width="700.000000pt" height="700.000000pt" viewBox="0 0 700.000000 700.000000"
 preserveAspectRatio="xMidYMid meet">
<metadata>
Created by potrace 1.14, written by Peter Selinger 2001-2017
</metadata>
<g transform="translate(0.000000,700.000000) scale(0.100000,-0.100000)"
fill="#000000" stroke="none">
<path d="M2908 6265 c-2 -1 -31 -5 -64 -9 -221 -23 -465 -143 -632 -312 -373
-378 -422 -963 -117 -1389 54 -75 135 -166 144 -161 3 3 6 109 5 238 -1 190
-4 240 -17 269 -32 71 -50 181 -49 289 4 508 470 881 971 775 325 -68 583
-346 628 -675 10 -79 3 -256 -13 -281 -3 -5 9 -9 26 -9 44 0 131 -33 185 -70
25 -18 49 -30 51 -27 3 2 7 17 10 33 2 16 9 56 15 89 12 68 14 201 5 290 -20
184 -107 386 -231 542 -201 251 -488 394 -817 407 -53 2 -98 3 -100 1z"/>
<path d="M2927 5704 c-1 -2 -18 -6 -37 -9 -102 -17 -209 -75 -288 -156 -53
-53 -87 -109 -121 -198 l-25 -66 -2 -1060 c-2 -583 -3 -1069 -3 -1079 -1 -14
-53 32 -178 157 -98 97 -188 184 -200 192 -213 147 -527 123 -703 -54 -78 -78
-149 -203 -166 -293 -32 -173 -16 -284 57 -399 16 -25 248 -264 516 -532 1078
-1075 1108 -1103 1290 -1221 163 -105 340 -171 561 -211 102 -18 126 -20 287
-31 181 -12 598 -6 623 10 4 2 35 7 70 10 34 4 95 13 135 22 40 9 83 18 97 20
14 3 71 20 127 39 441 147 684 434 789 930 5 24 31 195 38 250 14 109 20 389
19 995 0 585 -2 673 -16 727 -50 189 -187 331 -364 377 -116 31 -289 11 -376
-43 l-34 -21 -38 76 c-68 134 -206 243 -345 273 -106 23 -265 1 -364 -51 l-29
-15 -35 71 c-66 132 -189 231 -334 270 -76 21 -218 14 -293 -13 -33 -12 -64
-23 -69 -24 -6 -1 -10 118 -11 298 -2 327 -8 374 -63 484 -39 79 -142 180
-223 220 -36 18 -72 34 -80 35 -8 2 -30 6 -49 10 -36 7 -158 15 -163 10z m171
-363 c49 -25 97 -87 113 -145 8 -29 11 -311 12 -931 0 -490 4 -904 8 -920 5
-17 22 -44 39 -60 40 -38 119 -46 167 -16 66 42 66 41 68 496 1 393 2 412 22
455 42 91 120 143 213 142 127 -1 222 -70 244 -178 4 -17 7 -258 7 -535 1
-473 2 -506 20 -544 23 -49 66 -77 122 -77 53 -1 78 12 113 58 l27 35 2 387
c1 278 5 395 14 417 35 87 115 151 199 159 52 5 145 -27 196 -67 21 -17 48
-51 60 -76 20 -44 20 -63 22 -511 1 -415 3 -469 18 -498 24 -46 71 -72 129
-72 42 0 52 5 87 40 29 29 40 49 41 72 1 18 2 175 3 348 2 295 3 318 23 361
39 87 132 149 223 149 51 0 131 -31 170 -66 74 -67 72 -43 71 -862 -1 -400 -3
-749 -5 -777 -7 -102 -18 -210 -21 -215 -1 -3 -6 -27 -9 -55 -4 -27 -16 -84
-26 -125 -99 -373 -346 -586 -775 -668 -188 -36 -301 -46 -525 -45 -464 1
-747 69 -1011 244 -97 65 -70 39 -1304 1265 -201 200 -328 334 -340 359 -29
58 -27 165 4 224 33 63 79 107 145 137 49 22 68 26 129 22 43 -2 88 -12 112
-23 25 -12 182 -160 428 -405 214 -212 391 -386 395 -388 4 -1 7 609 7 1355 1
1106 3 1365 14 1397 19 53 76 115 136 143 62 30 148 27 213 -6z"/>
</g>
</svg>
